<svg width="28" height="26" viewBox="0 0 28 26" fill="none" xmlns="http://www.w3.org/2000/svg">
<path d="M18.7376 2.65849C19.0657 2.96322 19.25 3.37647 19.25 3.80736C19.25 4.23825 19.0657 4.6515 18.7376 4.95624L10.0751 13L18.7376 21.0437C19.0564 21.3502 19.2328 21.7607 19.2288 22.1868C19.2248 22.6128 19.0408 23.0204 18.7163 23.3217C18.3918 23.623 17.9529 23.7939 17.4941 23.7976C17.0352 23.8013 16.5932 23.6375 16.2631 23.3415L6.36337 14.1489C6.0353 13.8441 5.851 13.4309 5.851 13C5.851 12.5691 6.0353 12.1558 6.36337 11.8511L16.2631 2.65849C16.5913 2.35385 17.0363 2.18271 17.5004 2.18271C17.9644 2.18271 18.4094 2.35385 18.7376 2.65849Z" fill="white"/>
</svg>
