<svg width="28" height="26" viewBox="0 0 28 26" fill="none" xmlns="http://www.w3.org/2000/svg">
<path d="M9.26238 2.65849C8.9343 2.96322 8.75 3.37647 8.75 3.80736C8.75 4.23825 8.9343 4.6515 9.26238 4.95624L17.9249 13L9.26238 21.0437C8.9436 21.3502 8.76721 21.7607 8.7712 22.1868C8.77518 22.6128 8.95923 23.0204 9.28369 23.3217C9.60816 23.623 10.0471 23.7939 10.5059 23.7976C10.9648 23.8013 11.4068 23.6375 11.7369 23.3415L21.6366 14.1489C21.9647 13.8441 22.149 13.4309 22.149 13C22.149 12.5691 21.9647 12.1558 21.6366 11.8511L11.7369 2.65849C11.4087 2.35385 10.9637 2.18271 10.4996 2.18271C10.0356 2.18271 9.59055 2.35385 9.26238 2.65849Z" fill="white"/>
</svg>
