<svg width="10" height="9" viewBox="0 0 10 9" fill="none" xmlns="http://www.w3.org/2000/svg">
<path d="M4.85062 0.763375C5.04238 0.426505 5.52793 0.426505 5.71969 0.763375L6.76905 2.60686C6.8402 2.73186 6.96175 2.82017 7.10262 2.84921L9.18015 3.27755C9.55979 3.35582 9.70983 3.81761 9.4487 4.10408L8.01972 5.67175C7.92282 5.77805 7.87639 5.92093 7.8923 6.06388L8.12693 8.17209C8.1698 8.55733 7.77698 8.84274 7.42384 8.68291L5.49131 7.8083C5.36027 7.749 5.21004 7.749 5.079 7.8083L3.14647 8.68291C2.79333 8.84274 2.40051 8.55733 2.44339 8.17209L2.67801 6.06388C2.69392 5.92093 2.64749 5.77805 2.5506 5.67175L1.12161 4.10408C0.860482 3.81761 1.01053 3.35582 1.39016 3.27755L3.46769 2.84921C3.60857 2.82017 3.73011 2.73186 3.80126 2.60686L4.85062 0.763375Z" fill="#FFB800"/>
</svg>
