<svg width="13" height="12" viewBox="0 0 13 12" fill="none" xmlns="http://www.w3.org/2000/svg">
<path d="M5.62885 0.545575C6.01136 -0.13307 6.98864 -0.13307 7.37115 0.545574L8.4971 2.54321C8.6398 2.79638 8.88558 2.97496 9.17047 3.03244L11.4183 3.48598C12.1819 3.64005 12.4839 4.5695 11.9567 5.143L10.4047 6.83115C10.2081 7.0451 10.1142 7.33403 10.1475 7.62274L10.4108 9.90067C10.5002 10.6745 9.70961 11.249 9.00126 10.9248L6.91616 9.97047C6.6519 9.84952 6.3481 9.84952 6.08384 9.97047L3.99874 10.9248C3.29039 11.249 2.49976 10.6745 2.58919 9.90067L2.85246 7.62274C2.88583 7.33404 2.79195 7.0451 2.59526 6.83115L1.04333 5.143C0.516106 4.5695 0.818101 3.64005 1.58173 3.48598L3.82953 3.03244C4.11442 2.97496 4.3602 2.79639 4.5029 2.54321L5.62885 0.545575Z" fill="#FFB800"/>
</svg>
