<svg width="12" height="12" viewBox="0 0 12 12" fill="none" xmlns="http://www.w3.org/2000/svg">
<path d="M5.29584 0.545575C5.67835 -0.13307 6.65563 -0.13307 7.03814 0.545574L8.16409 2.54321C8.30679 2.79638 8.55258 2.97496 8.83746 3.03244L11.0853 3.48598C11.8489 3.64005 12.1509 4.5695 11.6237 5.143L10.0717 6.83115C9.87505 7.0451 9.78117 7.33403 9.81453 7.62274L10.0778 9.90067C10.1672 10.6745 9.3766 11.249 8.66825 10.9248L6.58316 9.97047C6.31889 9.84952 6.01509 9.84952 5.75083 9.97047L3.66574 10.9248C2.95738 11.249 2.16675 10.6745 2.25619 9.90067L2.51945 7.62274C2.55282 7.33404 2.45894 7.0451 2.26225 6.83115L0.710325 5.143C0.183098 4.5695 0.485093 3.64005 1.24873 3.48598L3.49653 3.03244C3.78141 2.97496 4.02719 2.79639 4.16989 2.54321L5.29584 0.545575Z" fill="#FFB800"/>
</svg>
