<svg width="16" height="15" viewBox="0 0 16 15" fill="none" xmlns="http://www.w3.org/2000/svg">
<path d="M6.84369 0.545576C7.2262 -0.133069 8.20348 -0.13307 8.58599 0.545575L10.3468 3.66947C10.4895 3.92265 10.7352 4.10122 11.0201 4.1587L14.5352 4.86794C15.2989 5.02202 15.6009 5.95147 15.0736 6.52497L12.6467 9.16489C12.45 9.37884 12.3562 9.66777 12.3895 9.95648L12.8012 13.5187C12.8907 14.2926 12.1 14.867 11.3917 14.5428L8.13101 13.0505C7.86675 12.9295 7.56294 12.9295 7.29868 13.0505L4.03802 14.5428C3.32966 14.867 2.53903 14.2926 2.62847 13.5187L3.04016 9.95648C3.07353 9.66777 2.97965 9.37884 2.78296 9.16489L0.356065 6.52497C-0.171162 5.95147 0.130832 5.02202 0.894464 4.86794L4.40957 4.1587C4.69445 4.10122 4.94023 3.92265 5.08294 3.66947L6.84369 0.545576Z" fill="#FFB800"/>
</svg>
